# xmcd CD database file
#
# Track frame offsets:
#	150
#	29008
#	57866
#	86724
#	115582
#	144440
#	173298
#
# Disc length: 2693 seconds
#
# Revision: 0
# Processed by: cddbd v1.5.2PL0 Copyright (c) Steve Scherf et al.
# Submitted via: CDex 1.77
#
DISCID=510a8307
DTITLE=Kenny Drew Trio - At the Brewhouse
DYEAR=1900
DGENRE=Jazz
TTITLE0=In Your Own Sweet Way
TTITLE1=It Might As Well Be Spring
TTITLE2=Hush-A-Bye
TTITLE3=Bluesology
TTITLE4=It Could Happen to You
TTITLE5=You Don't Know What Love Is
TTITLE6=All Blues
EXTD=
EXTT0=
EXTT1=
EXTT2=
EXTT3=
EXTT4=
EXTT5=
EXTT6=
PLAYORDER=
